<svg width="800" height="800" viewBox="0 0 800 800" fill="none" xmlns="http://www.w3.org/2000/svg">
<g clip-path="url(#clip0_1_20)">
<path d="M761.931 399.989C761.931 418.978 760.543 437.632 757.856 455.86C740.77 572.193 671.104 671.418 573.783 728.655C517.218 761.909 451.337 780.966 380.977 780.966C310.617 780.966 244.736 761.909 188.171 728.655C139.51 700.036 97.7691 660.938 66.0602 614.449C44.0924 582.27 26.9391 546.575 15.6305 508.35C5.46396 473.999 0 437.632 0 399.989C0 315.073 27.7901 236.652 74.7712 173.302C144.168 79.6977 255.485 19.0343 380.977 19.0343C591.384 19.0343 761.931 189.582 761.931 399.989Z" fill="#161718"/>
<path d="M800 565.793C799.718 656.217 724.647 728.655 634.223 728.655H188.171C139.51 700.036 97.7691 660.938 66.0602 614.449H635.414C662.046 614.449 684.757 593.778 685.758 567.164C686.813 539.188 664.364 516.098 636.619 516.098H66.62C48.8845 516.098 31.7537 513.388 15.6305 508.35C5.46396 473.999 0 437.632 0 399.989C0 315.073 27.7901 236.652 74.7712 173.302H567.45C596.638 173.302 620.298 196.962 620.298 226.15V251.114C620.298 271.214 604.005 287.507 583.905 287.507H67.9211C35.9345 287.507 8.90357 313.683 9.43429 345.665C9.95157 376.751 35.4105 401.892 66.6178 401.892H636.616C684.672 401.892 727.936 422.74 757.854 455.86C784.141 484.956 800.132 523.535 800 565.793Z" fill="url(#paint0_linear_1_20)"/>
<path d="M558.153 230.404H682.435V255.037H558.153C551.349 255.037 545.836 249.524 545.836 242.721C545.836 235.918 551.349 230.404 558.153 230.404Z" fill="#161718"/>
<path d="M521.204 227.045C532.953 227.045 542.477 217.521 542.477 205.772C542.477 194.023 532.953 184.498 521.204 184.498C509.455 184.498 499.93 194.023 499.93 205.772C499.93 217.521 509.455 227.045 521.204 227.045Z" fill="#161718"/>
</g>
<defs>
<linearGradient id="paint0_linear_1_20" x1="0" y1="173.302" x2="520.306" y2="922.816" gradientUnits="userSpaceOnUse">
<stop stop-color="#FF4D1C"/>
<stop offset="1" stop-color="#FF7A50"/>
</linearGradient>
<clipPath id="clip0_1_20">
<rect width="800" height="800" fill="white"/>
</clipPath>
</defs>
</svg>
