<svg width="400" height="400" viewBox="0 0 400 400" fill="none" xmlns="http://www.w3.org/2000/svg">
<path d="M399.994 254.294C399.994 259.859 399.994 265.419 399.962 270.984C399.935 275.67 399.882 280.357 399.753 285.038C399.475 295.247 398.875 305.542 397.059 315.639C395.217 325.88 392.212 335.409 387.477 344.718C382.822 353.861 376.738 362.233 369.485 369.491C362.227 376.748 353.861 382.828 344.712 387.482C335.409 392.217 325.875 395.222 315.633 397.065C305.537 398.88 295.242 399.48 285.033 399.759C280.346 399.887 275.665 399.941 270.978 399.968C265.413 400.005 259.853 400 254.288 400H145.695C140.13 400 134.571 400 129.005 399.968C124.319 399.941 119.632 399.887 114.951 399.759C104.742 399.48 94.447 398.88 84.35 397.065C74.109 395.222 64.58 392.217 55.271 387.482C46.128 382.828 37.756 376.743 30.499 369.491C23.241 362.233 17.161 353.866 12.507 344.718C7.77202 335.414 4.76699 325.88 2.92499 315.639C1.10899 305.542 0.50898 295.247 0.22998 285.038C0.10198 280.352 0.0479961 275.67 0.0209961 270.984C-3.90597e-06 265.419 0 259.859 0 254.294V145.701C0 140.136 -1.75796e-05 134.576 0.0319824 129.011C0.0589824 124.324 0.112028 119.637 0.241028 114.956C0.520028 104.747 1.119 94.452 2.935 84.356C4.778 74.115 7.78301 64.586 12.518 55.277C17.172 46.133 23.257 37.762 30.509 30.504C37.767 23.246 46.133 17.167 55.282 12.512C64.586 7.77699 74.12 4.77199 84.361 2.92999C94.458 1.11399 104.752 0.513992 114.961 0.235992C119.648 0.106992 124.329 0.0540081 129.016 0.0270081C134.576 8.05594e-06 140.136 0 145.701 0H254.294C259.859 0 265.419 1.29379e-05 270.984 0.0320129C275.67 0.0590129 280.357 0.111997 285.038 0.240997C295.247 0.519997 305.542 1.119 315.639 2.935C325.88 4.778 335.409 7.78301 344.718 12.518C353.861 17.172 362.233 23.257 369.491 30.509C376.748 37.767 382.828 46.133 387.482 55.282C392.217 64.586 395.222 74.12 397.065 84.361C398.88 94.458 399.48 104.752 399.759 114.961C399.887 119.648 399.941 124.329 399.968 129.016C400.01 134.581 400 140.141 400 145.706V254.299L399.994 254.294Z" fill="black"/>
<path d="M200.001 200L328.151 273.986C327.364 275.352 326.223 276.515 324.809 277.329L205.025 346.484C201.913 348.279 198.078 348.279 194.966 346.484L75.1821 277.329C73.7681 276.515 72.6271 275.347 71.8401 273.986L199.99 200H200.001Z" fill="white"/>
<path d="M200 52.165V200L71.85 273.987C71.062 272.621 70.623 271.046 70.623 269.418V130.582C70.623 127.314 72.3641 124.304 75.1921 122.67L194.97 53.515C196.529 52.615 198.264 52.165 200 52.165Z" fill="white"/>
<path d="M328.15 126.013C327.363 124.647 326.222 123.485 324.808 122.67L205.024 53.515C203.471 52.615 201.735 52.165 200 52.165V200L328.15 273.987C328.938 272.621 329.377 271.046 329.377 269.418V130.582C329.377 128.948 328.943 127.384 328.15 126.013Z" fill="white"/>
<path d="M319.184 131.192C319.913 132.446 320.009 134.053 319.184 135.483L202.856 336.961C202.074 338.327 199.995 337.765 199.995 336.195V203.428C199.995 202.367 199.711 201.35 199.197 200.455L319.179 131.182H319.184V131.192Z" fill="black"/>
<path d="M319.184 131.192L199.202 200.466C198.694 199.577 197.949 198.827 197.028 198.291L82.054 131.91C80.688 131.128 81.251 129.05 82.82 129.05H315.467C317.117 129.05 318.461 129.944 319.179 131.198H319.184V131.192Z" fill="black"/>
</svg>
